<mxfile host="app.diagrams.net" agent="Mozilla/5.0 (Windows NT 10.0; Win64; x64) AppleWebKit/537.36 (KHTML, like Gecko) Chrome/136.0.0.0 YaBrowser/25.6.0.0 Safari/537.36" version="28.0.4">
  <diagram name="Страница — 1" id="kdj5VQ5BIx34DtgKmliu">
    <mxGraphModel dx="778" dy="980" grid="1" gridSize="10" guides="1" tooltips="1" connect="1" arrows="1" fold="1" page="1" pageScale="1" pageWidth="1169" pageHeight="827" math="0" shadow="0">
      <root>
        <mxCell id="0" />
        <mxCell id="1" parent="0" />
        <mxCell id="ioHFP6_RCdw3LYQlID6S-1" value="DimBuyingGroup" style="swimlane;childLayout=stackLayout;horizontal=1;startSize=50;horizontalStack=0;rounded=1;fontSize=14;fontStyle=0;strokeWidth=2;resizeParent=0;resizeLast=1;shadow=0;dashed=0;align=center;arcSize=4;whiteSpace=wrap;html=1;" vertex="1" parent="1">
          <mxGeometry x="1720" y="400" width="160" height="120" as="geometry" />
        </mxCell>
        <mxCell id="ioHFP6_RCdw3LYQlID6S-2" value="+&lt;span style=&quot;background-color: transparent;&quot;&gt;&lt;u&gt;BuyingGroupID&lt;/u&gt;;&lt;/span&gt;&lt;div&gt;+BuyingGroupName;&lt;/div&gt;" style="align=left;strokeColor=none;fillColor=none;spacingLeft=4;spacingRight=4;fontSize=12;verticalAlign=top;resizable=0;rotatable=0;part=1;html=1;whiteSpace=wrap;" vertex="1" parent="ioHFP6_RCdw3LYQlID6S-1">
          <mxGeometry y="50" width="160" height="70" as="geometry" />
        </mxCell>
        <mxCell id="ioHFP6_RCdw3LYQlID6S-3" value="DimCustomerCategory" style="swimlane;childLayout=stackLayout;horizontal=1;startSize=50;horizontalStack=0;rounded=1;fontSize=14;fontStyle=0;strokeWidth=2;resizeParent=0;resizeLast=1;shadow=0;dashed=0;align=center;arcSize=4;whiteSpace=wrap;html=1;" vertex="1" parent="1">
          <mxGeometry x="1720" y="80" width="160" height="120" as="geometry" />
        </mxCell>
        <mxCell id="ioHFP6_RCdw3LYQlID6S-4" value="+&lt;span style=&quot;text-decoration-line: underline; background-color: transparent;&quot;&gt;CustomerCategoryID;&lt;/span&gt;&lt;div&gt;+CustomerCategoryName;&lt;/div&gt;" style="align=left;strokeColor=none;fillColor=none;spacingLeft=4;spacingRight=4;fontSize=12;verticalAlign=top;resizable=0;rotatable=0;part=1;html=1;whiteSpace=wrap;" vertex="1" parent="ioHFP6_RCdw3LYQlID6S-3">
          <mxGeometry y="50" width="160" height="70" as="geometry" />
        </mxCell>
        <mxCell id="ioHFP6_RCdw3LYQlID6S-5" value="FactInvoice" style="swimlane;childLayout=stackLayout;horizontal=1;startSize=50;horizontalStack=0;rounded=1;fontSize=14;fontStyle=0;strokeWidth=2;resizeParent=0;resizeLast=1;shadow=0;dashed=0;align=center;arcSize=4;whiteSpace=wrap;html=1;" vertex="1" parent="1">
          <mxGeometry x="1040" y="920" width="160" height="230" as="geometry" />
        </mxCell>
        <mxCell id="ioHFP6_RCdw3LYQlID6S-6" value="&lt;div&gt;+&lt;span style=&quot;background-color: transparent; color: light-dark(rgb(0, 0, 0), rgb(255, 255, 255));&quot;&gt;&lt;u&gt;InvoiceID&lt;/u&gt;;&lt;/span&gt;&lt;/div&gt;&lt;div&gt;+CustomerID;&lt;/div&gt;&lt;div&gt;+OrderID;&lt;/div&gt;&lt;div&gt;+InvoiceDateID;&lt;/div&gt;&lt;div&gt;+DeliveryMethodID;&lt;/div&gt;&lt;div&gt;+ContactPersonID;&lt;/div&gt;&lt;div&gt;+SalespersonPersonID;&lt;/div&gt;&lt;div&gt;+TotalDryItems&lt;/div&gt;&lt;div&gt;+TotalChillerItems&lt;/div&gt;&lt;div&gt;+TotalAmountExcludingTax;&lt;/div&gt;&lt;div&gt;&lt;span style=&quot;background-color: transparent; color: light-dark(rgb(0, 0, 0), rgb(255, 255, 255));&quot;&gt;+TotalTaxAmount;&lt;/span&gt;&lt;/div&gt;&lt;div&gt;+TotalProfit;&amp;nbsp;&lt;/div&gt;" style="align=left;strokeColor=none;fillColor=none;spacingLeft=4;spacingRight=4;fontSize=12;verticalAlign=top;resizable=0;rotatable=0;part=1;html=1;whiteSpace=wrap;" vertex="1" parent="ioHFP6_RCdw3LYQlID6S-5">
          <mxGeometry y="50" width="160" height="180" as="geometry" />
        </mxCell>
        <mxCell id="ioHFP6_RCdw3LYQlID6S-7" value="DimDate" style="swimlane;childLayout=stackLayout;horizontal=1;startSize=50;horizontalStack=0;rounded=1;fontSize=14;fontStyle=0;strokeWidth=2;resizeParent=0;resizeLast=1;shadow=0;dashed=0;align=center;arcSize=4;whiteSpace=wrap;html=1;" vertex="1" parent="1">
          <mxGeometry x="910" y="225" width="160" height="160" as="geometry" />
        </mxCell>
        <mxCell id="ioHFP6_RCdw3LYQlID6S-8" value="+&lt;span style=&quot;background-color: transparent;&quot;&gt;&lt;u&gt;DateID&lt;/u&gt;;&lt;/span&gt;&lt;div&gt;+Date;&lt;/div&gt;&lt;div&gt;+Day;&lt;/div&gt;&lt;div&gt;+Month;&lt;/div&gt;&lt;div&gt;+Quarter;&lt;/div&gt;&lt;div&gt;+Year;&lt;/div&gt;&lt;div&gt;+DayOfWeek;&lt;/div&gt;" style="align=left;strokeColor=none;fillColor=none;spacingLeft=4;spacingRight=4;fontSize=12;verticalAlign=top;resizable=0;rotatable=0;part=1;html=1;whiteSpace=wrap;" vertex="1" parent="ioHFP6_RCdw3LYQlID6S-7">
          <mxGeometry y="50" width="160" height="110" as="geometry" />
        </mxCell>
        <mxCell id="ioHFP6_RCdw3LYQlID6S-9" value="FactOrderLine" style="swimlane;childLayout=stackLayout;horizontal=1;startSize=50;horizontalStack=0;rounded=1;fontSize=14;fontStyle=0;strokeWidth=2;resizeParent=0;resizeLast=1;shadow=0;dashed=0;align=center;arcSize=4;whiteSpace=wrap;html=1;" vertex="1" parent="1">
          <mxGeometry x="1640" y="1440" width="160" height="150" as="geometry" />
        </mxCell>
        <mxCell id="ioHFP6_RCdw3LYQlID6S-10" value="+&lt;span style=&quot;background-color: transparent;&quot;&gt;&lt;u&gt;OrderLineID&lt;/u&gt;;&lt;/span&gt;&lt;div&gt;+OrderID;&lt;/div&gt;&lt;div&gt;+StockItemID;&lt;/div&gt;&lt;div&gt;+Quantity;&lt;/div&gt;&lt;div&gt;+UnitPrice;&lt;/div&gt;&lt;div&gt;+PickedQuantity&lt;/div&gt;" style="align=left;strokeColor=none;fillColor=none;spacingLeft=4;spacingRight=4;fontSize=12;verticalAlign=top;resizable=0;rotatable=0;part=1;html=1;whiteSpace=wrap;" vertex="1" parent="ioHFP6_RCdw3LYQlID6S-9">
          <mxGeometry y="50" width="160" height="100" as="geometry" />
        </mxCell>
        <mxCell id="ioHFP6_RCdw3LYQlID6S-11" value="FactOrder" style="swimlane;childLayout=stackLayout;horizontal=1;startSize=50;horizontalStack=0;rounded=1;fontSize=14;fontStyle=0;strokeWidth=2;resizeParent=0;resizeLast=1;shadow=0;dashed=0;align=center;arcSize=4;whiteSpace=wrap;html=1;" vertex="1" parent="1">
          <mxGeometry x="1640" y="1200" width="160" height="160" as="geometry" />
        </mxCell>
        <mxCell id="ioHFP6_RCdw3LYQlID6S-12" value="+&lt;span style=&quot;background-color: transparent;&quot;&gt;&lt;u&gt;OrderID&lt;/u&gt;;&lt;/span&gt;&lt;div&gt;+CustomerID;&lt;/div&gt;&lt;div&gt;+OrderDateID;&lt;/div&gt;&lt;div&gt;+ExpectedDeliveryDateID;&lt;/div&gt;&lt;div&gt;+SalespersonPersonID;&lt;/div&gt;&lt;div&gt;+TotalQuantity;&lt;/div&gt;&lt;div&gt;+TotalValue;&lt;/div&gt;" style="align=left;strokeColor=none;fillColor=none;spacingLeft=4;spacingRight=4;fontSize=12;verticalAlign=top;resizable=0;rotatable=0;part=1;html=1;whiteSpace=wrap;" vertex="1" parent="ioHFP6_RCdw3LYQlID6S-11">
          <mxGeometry y="50" width="160" height="110" as="geometry" />
        </mxCell>
        <mxCell id="ioHFP6_RCdw3LYQlID6S-13" value="FactInvoiceLine" style="swimlane;childLayout=stackLayout;horizontal=1;startSize=50;horizontalStack=0;rounded=1;fontSize=14;fontStyle=0;strokeWidth=2;resizeParent=0;resizeLast=1;shadow=0;dashed=0;align=center;arcSize=4;whiteSpace=wrap;html=1;" vertex="1" parent="1">
          <mxGeometry x="800" y="1425" width="160" height="180" as="geometry" />
        </mxCell>
        <mxCell id="ioHFP6_RCdw3LYQlID6S-14" value="+&lt;span style=&quot;background-color: transparent;&quot;&gt;&lt;u&gt;InvoiceLineID;&lt;/u&gt;&lt;/span&gt;&lt;div&gt;+InvoiceID;&lt;/div&gt;&lt;div&gt;+StockItemID;&lt;/div&gt;&lt;div&gt;+Quantity;&lt;/div&gt;&lt;div&gt;+UnitPrice;&lt;/div&gt;&lt;div&gt;+TaxRate;&lt;/div&gt;&lt;div&gt;+LineProfit;&lt;/div&gt;&lt;div&gt;+ExtendedPrice;&lt;/div&gt;" style="align=left;strokeColor=none;fillColor=none;spacingLeft=4;spacingRight=4;fontSize=12;verticalAlign=top;resizable=0;rotatable=0;part=1;html=1;whiteSpace=wrap;" vertex="1" parent="ioHFP6_RCdw3LYQlID6S-13">
          <mxGeometry y="50" width="160" height="130" as="geometry" />
        </mxCell>
        <mxCell id="ioHFP6_RCdw3LYQlID6S-15" value="DimCustomer" style="swimlane;childLayout=stackLayout;horizontal=1;startSize=50;horizontalStack=0;rounded=1;fontSize=14;fontStyle=0;strokeWidth=2;resizeParent=0;resizeLast=1;shadow=0;dashed=0;align=center;arcSize=4;whiteSpace=wrap;html=1;" vertex="1" parent="1">
          <mxGeometry x="1370" y="160" width="200" height="310" as="geometry" />
        </mxCell>
        <mxCell id="ioHFP6_RCdw3LYQlID6S-16" value="+&lt;span style=&quot;background-color: transparent;&quot;&gt;&lt;u&gt;CustomerID&lt;/u&gt;;&lt;/span&gt;&lt;div&gt;+CustomerName&lt;/div&gt;&lt;div&gt;+CustomerCategoryID;&lt;/div&gt;&lt;div&gt;+BuyingGroupID;&lt;/div&gt;&lt;div&gt;+PrimaryContactPersonID;&lt;/div&gt;&lt;div&gt;+AlternateContactPersonID;&lt;/div&gt;&lt;div&gt;+DeliveryMethodID;&lt;/div&gt;&lt;div&gt;+DeliveryCityID;&lt;/div&gt;&lt;div&gt;+CreditLimit;&lt;/div&gt;&lt;div&gt;+AccountOpenedDate;&lt;/div&gt;&lt;div&gt;+StandardDiscountPercentage;&lt;/div&gt;&lt;div&gt;+PaymentDays;&lt;/div&gt;&lt;div&gt;+PhoneNumber;&lt;/div&gt;&lt;div&gt;+WebsiteURL;&lt;/div&gt;&lt;div&gt;+DeliveryAddressLine;&lt;/div&gt;&lt;div&gt;+DeliveryLocationLat;&lt;/div&gt;&lt;div&gt;+DeliveryLocationLong;&lt;/div&gt;" style="align=left;strokeColor=none;fillColor=none;spacingLeft=4;spacingRight=4;fontSize=12;verticalAlign=top;resizable=0;rotatable=0;part=1;html=1;whiteSpace=wrap;" vertex="1" parent="ioHFP6_RCdw3LYQlID6S-15">
          <mxGeometry y="50" width="200" height="260" as="geometry" />
        </mxCell>
        <mxCell id="ioHFP6_RCdw3LYQlID6S-17" value="FactCustomerTransaction" style="swimlane;childLayout=stackLayout;horizontal=1;startSize=50;horizontalStack=0;rounded=1;fontSize=14;fontStyle=0;strokeWidth=2;resizeParent=0;resizeLast=1;shadow=0;dashed=0;align=center;arcSize=4;whiteSpace=wrap;html=1;" vertex="1" parent="1">
          <mxGeometry x="1190" y="600" width="180" height="210" as="geometry" />
        </mxCell>
        <mxCell id="ioHFP6_RCdw3LYQlID6S-18" value="+&lt;span style=&quot;background-color: transparent;&quot;&gt;&lt;u&gt;CustomerTransactionID (PK)&lt;/u&gt;&lt;/span&gt;&lt;div&gt;+CustomerID;&lt;/div&gt;&lt;div&gt;+InvoiceID;&lt;/div&gt;&lt;div&gt;+TransactionDateID;&lt;/div&gt;&lt;div&gt;+PaymentMethodID;&lt;/div&gt;&lt;div&gt;+AmountExcludingTax;&lt;/div&gt;&lt;div&gt;+TaxAmount;&lt;/div&gt;&lt;div&gt;+TransactionAmount;&lt;/div&gt;&lt;div&gt;+OutstandingBalance;&lt;/div&gt;&lt;div&gt;+IsFinalized;&lt;/div&gt;" style="align=left;strokeColor=none;fillColor=none;spacingLeft=4;spacingRight=4;fontSize=12;verticalAlign=top;resizable=0;rotatable=0;part=1;html=1;whiteSpace=wrap;" vertex="1" parent="ioHFP6_RCdw3LYQlID6S-17">
          <mxGeometry y="50" width="180" height="160" as="geometry" />
        </mxCell>
        <mxCell id="ioHFP6_RCdw3LYQlID6S-19" value="" style="edgeStyle=entityRelationEdgeStyle;fontSize=12;html=1;endArrow=ERoneToMany;rounded=0;entryX=0;entryY=0.25;entryDx=0;entryDy=0;exitX=1;exitY=0.206;exitDx=0;exitDy=0;exitPerimeter=0;" edge="1" parent="1" source="ioHFP6_RCdw3LYQlID6S-16" target="ioHFP6_RCdw3LYQlID6S-2">
          <mxGeometry width="100" height="100" relative="1" as="geometry">
            <mxPoint x="1820" y="437.9" as="sourcePoint" />
            <mxPoint x="1580" y="224.99999999999991" as="targetPoint" />
          </mxGeometry>
        </mxCell>
        <mxCell id="ioHFP6_RCdw3LYQlID6S-20" value="" style="edgeStyle=entityRelationEdgeStyle;fontSize=12;html=1;endArrow=ERoneToMany;rounded=0;exitX=1.005;exitY=0.148;exitDx=0;exitDy=0;exitPerimeter=0;entryX=0;entryY=0.25;entryDx=0;entryDy=0;" edge="1" parent="1" source="ioHFP6_RCdw3LYQlID6S-16" target="ioHFP6_RCdw3LYQlID6S-4">
          <mxGeometry width="100" height="100" relative="1" as="geometry">
            <mxPoint x="1290" y="490" as="sourcePoint" />
            <mxPoint x="1390" y="390" as="targetPoint" />
          </mxGeometry>
        </mxCell>
        <mxCell id="ioHFP6_RCdw3LYQlID6S-21" value="" style="edgeStyle=entityRelationEdgeStyle;fontSize=12;html=1;endArrow=ERmandOne;startArrow=ERmandOne;rounded=0;entryX=1;entryY=0.114;entryDx=0;entryDy=0;entryPerimeter=0;exitX=0;exitY=0.347;exitDx=0;exitDy=0;exitPerimeter=0;" edge="1" parent="1" source="ioHFP6_RCdw3LYQlID6S-18" target="ioHFP6_RCdw3LYQlID6S-8">
          <mxGeometry width="100" height="100" relative="1" as="geometry">
            <mxPoint x="1240" y="540" as="sourcePoint" />
            <mxPoint x="1120" y="310" as="targetPoint" />
          </mxGeometry>
        </mxCell>
        <mxCell id="ioHFP6_RCdw3LYQlID6S-22" value="" style="edgeStyle=entityRelationEdgeStyle;fontSize=12;html=1;endArrow=ERoneToMany;rounded=0;entryX=-0.005;entryY=0.056;entryDx=0;entryDy=0;entryPerimeter=0;exitX=0.25;exitY=0;exitDx=0;exitDy=0;" edge="1" parent="1" source="ioHFP6_RCdw3LYQlID6S-17" target="ioHFP6_RCdw3LYQlID6S-16">
          <mxGeometry width="100" height="100" relative="1" as="geometry">
            <mxPoint x="1080" y="600" as="sourcePoint" />
            <mxPoint x="1340" y="440" as="targetPoint" />
            <Array as="points">
              <mxPoint x="1140" y="590" />
            </Array>
          </mxGeometry>
        </mxCell>
        <mxCell id="ioHFP6_RCdw3LYQlID6S-23" value="" style="edgeStyle=entityRelationEdgeStyle;fontSize=12;html=1;endArrow=ERmany;startArrow=ERmany;rounded=0;entryX=1;entryY=0.075;entryDx=0;entryDy=0;entryPerimeter=0;exitX=0;exitY=0.141;exitDx=0;exitDy=0;exitPerimeter=0;" edge="1" parent="1" source="ioHFP6_RCdw3LYQlID6S-12" target="ioHFP6_RCdw3LYQlID6S-16">
          <mxGeometry width="100" height="100" relative="1" as="geometry">
            <mxPoint x="1650" y="650" as="sourcePoint" />
            <mxPoint x="1570" y="410" as="targetPoint" />
          </mxGeometry>
        </mxCell>
        <mxCell id="ioHFP6_RCdw3LYQlID6S-24" style="edgeStyle=orthogonalEdgeStyle;rounded=0;orthogonalLoop=1;jettySize=auto;html=1;exitX=0.25;exitY=1;exitDx=0;exitDy=0;entryX=1;entryY=0.25;entryDx=0;entryDy=0;" edge="1" parent="1" source="ioHFP6_RCdw3LYQlID6S-6" target="ioHFP6_RCdw3LYQlID6S-14">
          <mxGeometry relative="1" as="geometry" />
        </mxCell>
        <mxCell id="ioHFP6_RCdw3LYQlID6S-25" style="edgeStyle=orthogonalEdgeStyle;rounded=0;orthogonalLoop=1;jettySize=auto;html=1;exitX=1;exitY=0.5;exitDx=0;exitDy=0;entryX=0;entryY=0.5;entryDx=0;entryDy=0;" edge="1" parent="1" source="ioHFP6_RCdw3LYQlID6S-6" target="ioHFP6_RCdw3LYQlID6S-12">
          <mxGeometry relative="1" as="geometry" />
        </mxCell>
        <mxCell id="ioHFP6_RCdw3LYQlID6S-26" style="edgeStyle=orthogonalEdgeStyle;rounded=0;orthogonalLoop=1;jettySize=auto;html=1;exitX=0.25;exitY=1;exitDx=0;exitDy=0;entryX=0;entryY=0.25;entryDx=0;entryDy=0;" edge="1" parent="1" source="ioHFP6_RCdw3LYQlID6S-8" target="ioHFP6_RCdw3LYQlID6S-6">
          <mxGeometry relative="1" as="geometry" />
        </mxCell>
        <mxCell id="ioHFP6_RCdw3LYQlID6S-27" style="edgeStyle=orthogonalEdgeStyle;rounded=0;orthogonalLoop=1;jettySize=auto;html=1;exitX=0;exitY=0.5;exitDx=0;exitDy=0;entryX=0;entryY=0.75;entryDx=0;entryDy=0;" edge="1" parent="1" source="ioHFP6_RCdw3LYQlID6S-8" target="ioHFP6_RCdw3LYQlID6S-12">
          <mxGeometry relative="1" as="geometry" />
        </mxCell>
        <mxCell id="ioHFP6_RCdw3LYQlID6S-28" style="edgeStyle=orthogonalEdgeStyle;rounded=0;orthogonalLoop=1;jettySize=auto;html=1;exitX=0;exitY=0.5;exitDx=0;exitDy=0;entryX=0.5;entryY=0;entryDx=0;entryDy=0;" edge="1" parent="1" source="ioHFP6_RCdw3LYQlID6S-16" target="ioHFP6_RCdw3LYQlID6S-5">
          <mxGeometry relative="1" as="geometry" />
        </mxCell>
        <mxCell id="ioHFP6_RCdw3LYQlID6S-29" style="edgeStyle=orthogonalEdgeStyle;rounded=0;orthogonalLoop=1;jettySize=auto;html=1;exitX=0.5;exitY=1;exitDx=0;exitDy=0;entryX=0.5;entryY=0;entryDx=0;entryDy=0;" edge="1" parent="1" source="ioHFP6_RCdw3LYQlID6S-12" target="ioHFP6_RCdw3LYQlID6S-9">
          <mxGeometry relative="1" as="geometry" />
        </mxCell>
      </root>
    </mxGraphModel>
  </diagram>
</mxfile>
